<svg version="1.1" xmlns="http://www.w3.org/2000/svg" viewBox="-266.2 -1751.7 8306.232885252804 2981.4"><desc>Created with Snap</desc><defs></defs><g><rect x="-266.2" y="-1751.7" width="8306.232885252804" height="2981.4" fill="#a53860" style=""></rect><g transform="matrix(26.3293,0,0,26.3293,5231.5538,-1576.1463)"><g><path d="M78.4,66.5c-5.5,4.8-9.9,15.2-9.9,15.2s-6.9-11.4-12.9-15.3c-9.5-6.1-13.6-6.2-13.6-6.2V65c0,0,7.8,1.2,11.7,4.6   c8.2,7.1,14.8,18.5,14.8,18.5S74.4,75,80.1,70.5C88.1,64.3,95,65,95,65v-4.8C95,60.1,85.1,60.7,78.4,66.5z" fill="#ffffff" style=""></path><path d="M42,80c-6.4-3.6-17.8-4.3-17.8-4.3s8.7-10.1,10.5-17C37.5,47.9,36.2,44,36.2,44l-4.6,1.6c0,0,1.3,7.7-0.6,12.4   c-4.1,9.9-13,19.8-13,19.8s14.6,1.3,20.7,5.1c8.6,5.4,10.2,12,10.2,12l4.6-1.6C53.5,93.4,49.7,84.4,42,80z" fill="#ffffff" style=""></path><path d="M35.3,36.8c11.3-0.9,14.6-3.4,14.6-3.4l-3-3.8c0,0-6.9,3.7-12.1,3.4c-10.9-0.6-23.3-5.6-23.3-5.6s3.5,14,1.8,20.9   C10.9,58.2,5,61.8,5,61.8l3,3.8c0,0,7.5-6.5,9.1-15.1c1.3-7.1-1.7-18-1.7-18S28,37.4,35.3,36.8z" fill="#ffffff" style=""></path><path d="M37.4,17.8c7.3-1.1,16.7-7.4,16.7-7.4s-0.6,13.2,2.4,19.8c4.6,10.2,8,12.5,8,12.5l2.7-4c0,0-5.9-5.2-7.3-10.2   C56.9,18.2,57.7,5,57.7,5s-12.3,7.8-19.5,8.5c-10.2,1-15.6-3.3-15.6-3.3l-2.7,4.1C19.9,14.2,28.6,19.1,37.4,17.8z" fill="#ffffff" style=""></path><path d="M65,60.5c0,0,3.1-7.2,7.4-10.1c9-6.1,21.9-9.7,21.9-9.7s-11.5-8.9-14.5-15.4c-4.2-9.1-1.9-15.6-1.9-15.6l-4.8-1.2   c0,0-1.9,9.6,2.2,17.4c3.4,6.4,12.5,13.2,12.5,13.2S75,42.9,69.6,47.8c-8.3,7.6-9.4,11.5-9.4,11.5L65,60.5z" fill="#ffffff" style=""></path></g><desc>Created with Snap</desc><defs></defs></g><g><g transform="matrix(1,0,0,-1,0,0)"><path d="M406 0L314 2Q277 39 212 121Q148 204 131 223L131 17Q122 -13 96 -13Q78 -13 61 1Q45 16 41 37Q44 140 44 379Q44 618 48 722L109 709Q110 669 112 545Q115 421 117 360L360 538L377 493Q282 424 154 298Q181 269 273 156Q366 44 406 0ZM514 400L518 4Q503 -4 482 -4Q466 -4 446 1Q449 64 450 249Q451 434 458 523L503 513L506 457Q559 513 628 513Q663 513 684 508Q705 503 724 483Q744 464 754 432Q764 400 772 340Q780 281 783 201Q787 122 788 1Q782 -1 765 -1Q729 -1 709 8Q705 24 705 61Q705 80 706 132Q708 185 708 214Q708 262 704 298Q701 334 691 369Q682 404 662 423Q643 442 614 442Q581 442 562 437Q544 432 536 425Q529 418 514 400ZM891 514L937 504Q945 422 951 246Q957 71 959 29Q950 -2 924 -2Q906 -2 889 12Q873 27 869 48Q871 89 877 261Q883 434 891 514ZM905 693Q932 693 950 669Q968 646 968 616Q968 594 957 580Q947 567 929 567Q901 567 885 590Q869 613 869 644Q869 666 878 679Q888 693 905 693ZM1355 516L1400 526Q1400 496 1401 479Q1407 260 1407 194Q1407 171 1408 122Q1409 73 1409 48Q1409 -7 1405 -47Q1402 -87 1390 -131Q1378 -174 1357 -202Q1337 -229 1299 -247Q1262 -265 1211 -265Q1167 -265 1056 -252Q1055 -241 1052 -228Q1050 -215 1050 -208Q1050 -193 1053 -184Q1061 -185 1115 -192Q1170 -199 1196 -199Q1265 -199 1302 -157Q1339 -115 1340 0Q1291 -28 1237 -28Q1192 -28 1158 -10Q1124 9 1104 37Q1084 66 1071 106Q1059 147 1054 185Q1050 223 1050 266Q1050 374 1097 447Q1145 520 1242 520Q1299 520 1354 485Q1355 495 1355 516ZM1343 97L1346 420Q1340 438 1308 448Q1277 459 1239 459Q1185 459 1155 409Q1125 360 1125 289Q1125 252 1129 216Q1133 181 1145 138Q1157 96 1184 70Q1211 44 1251 44Q1281 44 1306 58Q1331 73 1343 97ZM1496 720L1548 708Q1551 667 1552 577Q1554 487 1556 453Q1610 510 1686 510Q1754 510 1803 462Q1853 414 1853 334L1853 5Q1840 -1 1820 -1Q1798 -1 1780 3Q1780 11 1780 27Q1781 44 1781 52Q1781 91 1778 186Q1775 282 1775 346Q1760 438 1682 438Q1648 438 1615 419Q1582 401 1567 376Q1570 313 1571 186Q1572 59 1574 3Q1550 -1 1533 -1Q1508 -1 1491 5Q1493 54 1493 160Q1493 207 1492 332Q1491 458 1491 548Q1492 639 1496 720ZM2208 484L2219 439Q2192 437 2136 428Q2080 420 2052 418Q2057 383 2058 326Q2059 269 2060 227Q2062 186 2069 144Q2077 103 2100 81Q2124 59 2164 59Q2194 59 2239 73Q2258 36 2267 19Q2188 -9 2107 -9Q2077 -9 2055 9Q2033 27 2021 54Q2009 81 2001 122Q1994 164 1992 201Q1990 238 1990 286Q1990 312 1990 358Q1991 404 1991 421Q1981 420 1944 419Q1907 419 1901 419Q1894 486 1894 488Q1901 486 1917 486Q1926 486 1946 487Q1966 489 1976 489Q1980 489 1986 488Q1993 488 1995 488Q1999 598 2004 667L2049 656Q2050 632 2050 604Q2051 577 2051 543Q2052 510 2052 492Q2078 490 2130 488Q2182 486 2208 484ZM2930 496L2925 453Q2883 459 2853 459Q2784 459 2739 417Q2694 376 2677 319Q2661 263 2661 194Q2661 162 2665 137Q2669 112 2679 88Q2690 64 2712 50Q2735 37 2768 37Q2812 37 2880 54Q2901 62 2913 62Q2937 62 2942 6Q2854 -22 2779 -22Q2670 -22 2631 31Q2593 85 2593 205Q2593 275 2602 327Q2612 380 2636 425Q2660 471 2705 495Q2751 519 2817 519Q2891 519 2930 496ZM2993 213Q2993 253 3001 302Q3010 351 3027 405Q3044 459 3078 495Q3112 531 3157 531Q3253 531 3311 444Q3369 358 3369 252Q3369 207 3359 162Q3350 118 3330 75Q3310 32 3272 3Q3235 -25 3185 -29Q3093 -17 3043 49Q2993 116 2993 213ZM3163 479Q3128 475 3104 415Q3080 355 3073 298Q3066 242 3066 199Q3066 143 3100 95Q3135 48 3178 48Q3209 48 3234 72Q3259 96 3273 131Q3288 167 3295 203Q3303 239 3303 267Q3303 349 3266 410Q3229 471 3163 479ZM3823 764L3810 -26L3755 -15Q3755 5 3754 15Q3701 -19 3642 -19Q3551 -19 3500 59Q3450 137 3450 236Q3450 287 3457 332Q3465 377 3483 424Q3502 472 3541 500Q3581 528 3637 528Q3692 528 3740 501Q3748 607 3748 715Q3748 764 3747 787Q3795 778 3823 764ZM3746 81L3743 403Q3731 428 3705 442Q3680 457 3651 457Q3612 457 3584 432Q3557 407 3545 365Q3534 324 3529 288Q3525 252 3525 212Q3525 42 3639 42Q3677 42 3708 52Q3740 63 3746 81ZM4307 97L4317 53Q4273 37 4186 17Q4100 -2 4058 -2Q4015 -2 3983 26Q3951 55 3935 99Q3919 144 3911 187Q3904 231 3904 273Q3904 523 4130 523Q4184 523 4225 488Q4266 454 4266 399Q4266 369 4249 346Q4233 323 4209 309Q4186 296 4149 285Q4113 274 4085 269Q4057 264 4018 258Q3979 252 3964 249Q3965 220 3967 198Q3970 176 3977 150Q3985 125 3997 108Q4010 92 4032 81Q4054 70 4084 70Q4120 70 4172 76Q4224 83 4264 90Q4305 97 4307 97ZM3968 311Q4104 350 4191 393Q4184 426 4172 441Q4160 456 4136 456Q4075 456 4025 414Q3976 372 3968 311ZM4687 381L4643 384Q4622 440 4572 440Q4550 440 4525 430Q4501 420 4485 409Q4469 399 4443 379Q4443 365 4442 288Q4442 211 4443 117Q4445 23 4447 16Q4438 -14 4412 -14Q4394 -14 4377 0Q4361 15 4357 36Q4376 357 4391 521L4436 511L4439 444Q4509 502 4559 502Q4614 502 4651 477Q4689 452 4689 404Q4689 389 4687 381ZM5037 482L5027 442Q4930 482 4876 482Q4828 482 4808 467Q4789 453 4789 406Q4789 368 4816 343Q4844 318 4883 303Q4922 289 4961 272Q5001 256 5028 224Q5056 192 5056 145Q5056 81 5009 33Q4962 -15 4887 -16Q4832 -16 4784 7Q4736 30 4708 65L4737 95Q4749 90 4772 79Q4796 68 4806 64Q4816 61 4835 57Q4855 53 4877 53Q4924 53 4954 74Q4984 95 4984 133Q4984 158 4970 175Q4956 193 4933 204Q4910 215 4882 225Q4855 235 4827 247Q4800 260 4777 277Q4754 295 4740 325Q4726 355 4726 396Q4726 456 4758 496Q4791 537 4850 537Q4873 537 4902 530Q4931 523 4948 517Q4965 511 4998 497Q5032 484 5037 482Z" fill="#ffffff" style=""></path></g></g></g></svg>