<svg version="1.1" xmlns="http://www.w3.org/2000/svg" viewBox="-274.2 -1295.2 5771.73544921875 2022.4"><desc>Created with Snap</desc><defs></defs><g><g><g transform="matrix(0.5,0,0,-0.5,0,0)"><g transform="matrix(1,0,0,1,0,0)"><path d="M807 201Q860 201 860 134Q860 94 826 55Q759 -20 689 -20Q571 -20 480 55Q390 130 333 235Q276 340 263 413L258 410Q251 358 214 207Q177 57 171 27Q161 -25 123 -25Q92 -25 79 -14Q66 -3 66 4L66 12Q66 70 158 459Q251 848 274 950Q389 1443 430 1686Q471 1930 481 1952Q492 1974 506 1974Q572 1974 572 1906Q572 1882 548 1769Q525 1656 504 1556Q484 1457 437 1241Q390 1026 375 956Q459 1044 541 1044Q623 1044 653 987Q684 931 684 867Q684 746 599 655Q514 564 342 460Q370 306 471 191Q572 76 680 76Q730 76 754 123Q765 143 775 172Q785 201 807 201ZM518 950Q440 950 383 880Q327 811 301 669Q296 640 282 576L268 504Q278 512 305 528Q332 545 395 588Q458 631 519 701Q580 771 580 860Q580 950 518 950Z" fill="#0560af" style=""></path></g><g transform="matrix(1,0,0,1,893,0)"><path d="M698 810Q698 909 644 909Q572 909 369 496Q277 309 240 213Q204 118 186 79Q168 40 150 20Q133 0 111 0Q90 0 86 10Q82 21 82 48Q82 76 162 520Q243 965 255 988Q268 1011 278 1017Q288 1024 314 1024Q340 1024 354 1004Q369 984 369 968Q369 953 365 938Q358 911 344 871Q296 734 252 483L231 362Q254 410 283 477Q312 545 369 671Q426 797 496 896Q586 1026 664 1026Q801 1026 801 805Q801 722 777 598Q754 474 725 327Q697 180 694 84L682 29Q682 7 675 -3Q669 -12 636 -12Q604 -12 589 0Q575 12 580 43L680 641Q698 752 698 810Z" fill="#0560af" style=""></path></g><g transform="matrix(1,0,0,1,1806,0)"><path d="M383 1376Q442 1376 442 1317Q442 1231 382 1220Q365 1217 345 1217Q325 1217 305 1237Q285 1257 285 1288Q285 1320 316 1348Q347 1376 383 1376ZM242 909L242 929Q242 943 227 997Q227 1022 244 1042Q261 1063 285 1063Q310 1063 326 1032Q342 1001 342 964Q342 927 248 522Q154 117 154 95Q154 74 174 74Q187 74 211 99Q235 125 252 125Q285 125 285 83Q285 42 223 11Q161 -20 133 -20Q63 -20 63 92Q63 115 72 143Q82 172 92 222Q103 273 122 360Q142 447 162 540Q183 633 212 765Q242 898 242 909Z" fill="#0560af" style=""></path></g><g transform="matrix(1,0,0,1,2244,0)"><path d="M715 1016Q748 1016 748 982Q748 949 736 917Q724 885 710 834Q697 784 672 680Q647 576 623 469Q599 363 576 257Q554 151 532 53Q570 79 607 113Q645 147 670 167Q696 188 714 188Q752 188 752 154Q752 127 735 113Q608 16 520 -47L461 -348Q401 -653 308 -758Q234 -840 136 -840Q39 -840 -28 -774Q-94 -707 -94 -596Q-94 -436 71 -292Q138 -234 251 -151Q365 -68 430 -14Q439 31 451 84Q464 138 474 182Q484 226 494 269Q504 312 512 351Q521 390 528 418Q473 241 414 150Q305 -16 229 -16Q154 -16 107 41Q61 98 61 193Q61 368 127 563Q193 759 309 900Q425 1042 563 1042Q633 1042 688 1010Q700 1016 715 1016ZM217 548Q154 373 154 227Q154 82 230 82Q297 82 384 211Q472 340 524 519Q577 699 604 798Q631 898 641 934Q609 961 562 961Q471 961 376 842Q281 723 217 548ZM383 -287L414 -125Q339 -187 265 -243Q192 -298 134 -353Q6 -476 6 -586Q6 -695 54 -724Q75 -737 118 -737Q206 -737 266 -642Q327 -546 383 -287Z" fill="#0560af" style=""></path></g><g transform="matrix(1,0,0,1,3022,0)"><path d="M191 66L193 31Q193 -16 117 -16Q82 -16 82 18Q82 52 282 970Q431 1673 471 1919L479 1946Q488 1976 515 1976Q566 1976 580 1925Q572 1887 558 1819Q545 1751 527 1664Q509 1577 488 1476Q467 1375 445 1271Q423 1167 378 953Q333 739 301 594Q510 1024 696 1024Q772 1024 809 964Q846 905 846 833Q846 761 820 632L786 460Q730 177 730 122L733 44Q733 18 715 2Q698 -14 669 -14Q640 -14 626 6Q613 27 613 46Q613 65 616 80L735 745Q741 777 741 819Q741 922 684 922Q576 922 390 599Q285 416 261 345Q237 275 214 183Q191 92 191 66Z" fill="#0560af" style=""></path></g><g transform="matrix(1,0,0,1,3980,0)"><path d="M272 942Q187 942 125 932Q84 936 84 967Q84 985 99 1004Q114 1023 139 1026L287 1022Q291 1043 295 1072Q300 1102 311 1158Q323 1215 343 1261Q364 1307 397 1307Q430 1307 430 1270L430 1257Q401 1133 381 1024L528 1024Q606 1024 623 1012Q641 1000 641 982Q641 947 598 936Q576 930 509 930Q443 930 365 936Q346 836 280 562Q215 288 215 208Q215 129 233 104Q246 88 277 88Q308 88 330 106Q352 124 370 145Q388 167 405 185Q423 203 444 203Q485 203 485 162Q485 141 443 92Q402 44 367 18Q332 -8 265 -8Q198 -8 173 15Q121 61 121 162Q121 214 133 285L152 401Q171 487 186 551Q201 616 212 665Q223 714 241 792Q259 871 272 942Z" fill="#0560af" style=""></path></g><g transform="matrix(1,0,0,1,4627,0)"><path fill="#0560af" style=""></path></g><g transform="matrix(1,0,0,1,5477,0)"><path d="M162 258Q162 76 295 76Q361 76 419 140Q441 165 460 185Q479 205 499 205Q539 205 539 170Q539 106 457 40Q375 -25 271 -25Q168 -25 114 51Q61 128 61 224Q61 403 127 595Q194 787 302 917Q411 1047 532 1047Q620 1047 648 984Q655 967 664 940Q674 914 686 907Q694 894 694 875Q694 857 677 841Q660 825 639 825Q596 825 584 888Q572 952 517 952Q440 952 357 835Q275 718 218 551Q162 384 162 258Z" fill="#0560af" style=""></path></g><g transform="matrix(1,0,0,1,6171,0)"><path d="M530 1034Q719 1034 719 748Q719 525 596 269Q513 97 396 21Q336 -18 272 -18Q159 -18 110 72Q61 162 61 266Q61 452 123 627Q186 802 293 918Q401 1034 530 1034ZM262 703Q154 487 154 281Q154 138 233 89Q257 74 288 74Q352 74 431 185Q510 296 564 458Q618 621 618 737Q618 854 604 885Q591 916 573 928Q556 940 515 940Q475 940 427 908Q334 848 262 703Z" fill="#0560af" style=""></path></g><g transform="matrix(1,0,0,1,6951,0)"><path d="M676 942L774 1372Q784 1418 822 1609Q861 1801 879 1876L883 1901Q883 1927 900 1945Q918 1964 937 1964Q981 1964 981 1917L981 1908Q981 1859 910 1535Q840 1211 819 1079Q798 947 739 710Q681 473 666 390Q651 307 637 249Q623 192 623 135Q623 78 641 20Q638 -4 619 -21Q600 -37 584 -37Q558 -37 539 24Q520 86 520 127Q520 169 532 225Q491 101 426 41Q361 -18 255 -18Q150 -18 105 68Q61 155 61 238Q61 544 177 756Q231 854 272 901Q314 948 379 991Q444 1034 539 1034Q634 1034 676 942ZM602 620Q618 702 622 724Q627 747 627 798Q627 850 597 899Q567 948 512 948Q414 948 332 824Q251 701 202 536Q154 372 154 259Q154 146 218 98Q239 82 274 82Q345 82 426 203Q507 324 547 431Q587 539 602 620Z" fill="#0560af" style=""></path></g><g transform="matrix(1,0,0,1,7850,0)"><g transform="matrix(4.619,0,0,4.619,-303.3714,1335.2285)"><g transform="matrix(1,0,0,-1,0,0)">
<g>
	<path d="M275.8,182.1h-20.6c-2.8,0-5,2.2-5,5c0,2.8,2.2,5,5,5h20.6c2.8,0,5-2.2,5-5C280.8,184.4,278.5,182.1,275.8,182.1z" fill="#0560af" style=""></path>
	<path d="M239.5,187.1c0-2.8-2.2-5-5-5h-20.6c-2.8,0-5,2.2-5,5c0,2.8,2.2,5,5,5h20.6C237.3,192.1,239.5,189.9,239.5,187.1z" fill="#0560af" style=""></path>
	<path d="M193.2,182.1h-20.6c-2.8,0-5,2.2-5,5c0,2.8,2.2,5,5,5h20.6c2.8,0,5-2.2,5-5C198.2,184.4,196,182.1,193.2,182.1z" fill="#0560af" style=""></path>
	<path d="M157,187.1c0-2.8-2.2-5-5-5h-20.6c-2.8,0-5,2.2-5,5c0,2.8,2.2,5,5,5H152C154.8,192.1,157,189.9,157,187.1z" fill="#0560af" style=""></path>
	<path d="M157,99.5c5.7-3.1,11.7-5.6,17.9-7.5c2.6-0.8,4.1-3.6,3.3-6.2c-0.8-2.6-3.6-4.1-6.2-3.3c-6.8,2.1-13.4,4.9-19.7,8.3
		c-2.3,1.5-3,4.6-1.5,6.9C152.1,99.7,154.7,100.5,157,99.5z" fill="#0560af" style=""></path>
	<path d="M120.4,125c2.2,1.7,5.3,1.4,7-0.8c4.1-5,8.6-9.7,13.6-13.8c2.1-1.8,2.4-4.9,0.6-7c-1.8-2.1-4.9-2.4-7-0.6
		c-5.5,4.6-10.5,9.7-15,15.2C117.9,120.1,118.2,123.3,120.4,125z" fill="#0560af" style=""></path>
	<path d="M103.3,161.9c0.5,0.1,0.9,0.2,1.4,0.2c2.2,0,4.2-1.5,4.8-3.6c1.8-6.2,4.2-12.3,7.2-18c1.3-2.4,0.4-5.5-2-6.8
		c-2.4-1.3-5.5-0.3-6.7,2.1c-3.3,6.3-6,13-8,19.8C99.1,158.3,100.6,161.1,103.3,161.9z" fill="#0560af" style=""></path>
	<path d="M231.6,91.8c0.2,0.1,0.5,0.2,0.7,0.2c6.2,1.9,12.2,4.4,17.9,7.5c0.7,0.4,1.5,0.6,2.4,0.6c2.8,0,5-2.2,5-5
		c0-1.8-1-3.5-2.6-4.4c-6.3-3.4-12.9-6.2-19.7-8.3c-2.6-1-5.5,0.2-6.5,2.8C227.8,87.9,229,90.8,231.6,91.8z" fill="#0560af" style=""></path>
	<path d="M290.4,140.5c3,5.7,5.4,11.8,7.2,18c0.6,2.1,2.6,3.6,4.8,3.6c2.8,0,5-2.2,5-5c0-0.5-0.1-0.9-0.2-1.4
		c-2-6.9-4.6-13.5-7.9-19.9c-1.2-2.5-4.2-3.5-6.7-2.3s-3.5,4.2-2.3,6.7C290.3,140.3,290.4,140.4,290.4,140.5z" fill="#0560af" style=""></path>
	<path d="M279.8,124.3c1.7,2.2,4.9,2.5,7,0.8c2.2-1.7,2.5-4.9,0.8-7c-4.5-5.6-9.5-10.7-15-15.2c-2.1-1.8-5.3-1.5-7,0.6
		c-1.8,2.1-1.5,5.3,0.6,7C271.2,114.6,275.7,119.2,279.8,124.3z" fill="#0560af" style=""></path>
	<path d="M111.2,218c-1-3-2-6-2.7-9.1c0-0.1,0-0.2-0.1-0.3c-0.2-0.8-0.7-1.6-1.2-2.1c8.1-2.5,14.1-10,14.3-18.9
		c0.2-11.2-8.6-20.5-19.9-20.8c-0.3,0-0.6,0-0.9,0c-11.2,0-20.3,9.1-20.3,20.3c0,10.7,8.3,19.5,18.9,20.2c-0.7,1.1-0.9,2.5-0.5,3.9
		c0.8,3.4,1.8,6.8,3,10c0.7,2,2.6,3.3,4.7,3.4c0.6,0,1.1-0.1,1.6-0.3C110.7,223.5,112.1,220.6,111.2,218z M100.7,201.5
		c-7.9,0-14.3-6.4-14.3-14.3c0-6.9,4.9-12.8,11.7-14.1c0.8-0.2,1.7-0.2,2.6-0.2c0.5,0,1.1,0,1.6,0.1c0.1,0,0.2,0,0.3,0
		c0.5,0.1,1.1,0.2,1.6,0.3c5.2,1.3,9.3,5.4,10.5,10.8c0.4,2,0.4,4.1,0,6.1C113.3,196.8,107.4,201.5,100.7,201.5z" fill="#0560af" style=""></path>
	<path d="M187.3,282.1c-5.7-1-11.3-2.4-16.8-4.4c-2.6-1-5.5,0.3-6.4,2.9c-0.9,2.6,0.3,5.5,2.9,6.4c0.1,0,0.1,0,0.2,0.1
		c6,2.2,12.2,3.8,18.5,4.9c0.3,0,0.6,0.1,0.8,0.1c2.8,0,5-2.3,5-5C191.5,284.6,189.7,282.5,187.3,282.1z" fill="#0560af" style=""></path>
	<path d="M118.4,233.8c-1.4-2.4-4.4-3.2-6.8-1.9c-2.4,1.4-3.2,4.4-1.9,6.8c3.2,5.6,6.8,10.8,10.9,15.8c1.8,2.1,4.9,2.4,7,0.6
		c2.1-1.8,2.4-4.9,0.6-7C124.6,243.7,121.3,238.9,118.4,233.8z" fill="#0560af" style=""></path>
	<path d="M154.8,270.4c-5-2.9-9.8-6.3-14.2-10c-2.1-1.8-5.3-1.5-7,0.6c-1.7,2.1-1.5,5.2,0.6,7c4.9,4.1,10.1,7.8,15.7,11
		c2.4,1.4,5.4,0.6,6.8-1.8C157.9,274.9,157.1,271.8,154.8,270.4z" fill="#0560af" style=""></path>
	<path d="M254.2,269.3c-5,3-10.2,5.6-15.6,7.6c-2.6,1-3.9,3.9-2.9,6.5c0.7,1.9,2.6,3.2,4.7,3.2c0.6,0,1.2-0.1,1.8-0.3
		c6-2.3,11.7-5.1,17.2-8.5c2.4-1.4,3.1-4.5,1.7-6.9C259.7,268.6,256.6,267.9,254.2,269.3z" fill="#0560af" style=""></path>
	<path d="M222,281.7c-5.7,1.1-11.5,1.7-17.3,1.7c-2.8,0-5,2.2-5,5s2.2,5,5,5c6.4-0.1,12.8-0.7,19.1-1.9c2.7-0.5,4.5-3.1,4-5.8
		C227.3,283,224.7,281.2,222,281.7z" fill="#0560af" style=""></path>
	<path d="M306.4,165.1c-11.2,0-20.3,9.1-20.3,20.3c0,11.2,9.1,20.3,20.3,20.3s20.3-9.1,20.3-20.3
		C326.7,174.2,317.6,165.1,306.4,165.1z M320.7,186.2c-0.4,7.6-6.7,13.5-14.3,13.5c-5.7,0-10.9-3.4-13.1-8.6V191
		c-0.8-1.8-1.2-3.7-1.1-5.7c0-0.26,0-0.51,0-0.7c0.5-7.9,7.2-13.9,15.1-13.4C315.1,171.6,321.1,178.3,320.7,186.2z" fill="#0560af" style=""></path>
	<path d="M203.5,103c11.2,0,20.3-9.1,20.3-20.3s-9.1-20.3-20.3-20.3s-20.3,9.1-20.3,20.3S192.3,103,203.5,103z M189.5,80.1
		c1.4-7.8,8.9-12.9,16.7-11.5c6,1.1,10.4,5.8,11.5,11.4c0.2,1.1,0.3,2.3,0.2,3.4c0,0.6-0.1,1.1-0.2,1.7c-0.1,0.5-0.2,1.1-0.4,1.6
		c-1.8,6-7.3,10.3-13.7,10.3c-6.4,0-12-4.2-13.7-10.3c-0.3-1.1-0.5-2.2-0.6-3.3C189.2,82.3,189.3,81.2,189.5,80.1z" fill="#0560af" style=""></path>
	<path d="M278.8,232.5c-11.2,0-20.3,9.1-20.3,20.3s9.1,20.3,20.3,20.3c11.2,0,20.3-9.1,20.3-20.3C299,241.6,290,232.5,278.8,232.5z
		 M278.8,267.1c-2.4,0-4.6-0.6-6.7-1.6c0,0-0.1,0-0.1-0.1c-2-1.1-3.7-2.6-5-4.5c-1.6-2.4-2.5-5.2-2.5-8.1c0-7.9,6.4-14.3,14.3-14.3
		c7.9,0,14.3,6.4,14.3,14.3C293.1,260.7,286.7,267.1,278.8,267.1z" fill="#0560af" style=""></path>
</g>
<desc>Created with Snap</desc><defs></defs></g></g></g><g transform="matrix(1,0,0,1,9082.6712,0)"><path d="M82 4L128 248Q164 435 177 513Q190 592 206 686Q223 781 274 958Q272 963 272 967L272 977Q272 1025 309 1046Q320 1053 332 1053Q375 1053 375 991Q375 955 346 861Q317 768 301 688Q315 711 335 746Q356 781 400 848Q445 915 512 975Q580 1036 650 1036Q721 1036 758 998Q772 985 772 965Q772 945 754 929Q736 913 717 913Q698 913 680 923Q662 934 640 934Q618 934 570 898Q379 759 255 347Q222 237 215 195Q208 154 203 128Q173 -33 111 -33Q82 -33 82 4Z" fill="#0560af" style=""></path></g><g transform="matrix(1,0,0,1,9809.6712,0)"><path d="M387 956Q287 956 287 840Q287 763 323 681Q359 599 384 550Q481 357 481 254Q481 152 419 80Q357 8 240 -6L227 -6Q114 -6 63 133Q61 138 61 142L61 152Q61 173 74 186Q87 200 102 203L113 203Q133 203 145 187Q158 171 169 151Q180 132 193 116Q206 100 238 100Q306 100 346 142Q387 185 387 237Q387 289 372 334Q347 411 286 526Q184 715 184 820Q184 925 237 992Q290 1059 387 1059Q447 1059 490 1034Q571 987 571 928Q571 870 522 870Q504 870 492 883Q481 897 468 913Q433 956 387 956Z" fill="#0560af" style=""></path></g></g></g></g></svg>